<svg xmlns="http://www.w3.org/2000/svg" viewBox="0 0 368.96 138.78"><defs><style>.cls-1,.cls-2{fill:none;}.cls-2{stroke:#000;stroke-linecap:round;stroke-linejoin:round;stroke-width:2px;}.cls-3{font-size:45px;font-family:NotoSans-Black, Noto Sans;font-weight:800;}.cls-4{letter-spacing:-0.02em;}.cls-5{letter-spacing:0em;}</style></defs><title>Asset 1</title><g id="Layer_2" data-name="Layer 2"><g id="Layer_1-2" data-name="Layer 1"><path class="cls-1" d="M0,0H138.78V138.78H0Z"/><path class="cls-2" d="M17.35,17.35c0,11.56,5.78,17.34,23.13,17.34q17.34,0,17.34,17.35"/><path class="cls-2" d="M121.43,17.35c0,11.56-5.78,17.34-23.13,17.34C86.74,34.69,81,36.62,81,52"/><path class="cls-2" d="M69.39,104.08c-5.78,0-23.13-17.34-23.13-34.69Q46.26,52,69.39,52T92.52,69.39c0,17.35-17.35,34.69-23.13,34.69"/><path class="cls-2" d="M87.81,86.09l.54-1a23.13,23.13,0,1,1-37.93,0"/><path class="cls-2" d="M98.3,17.35q0,11.56-5.78,17.34"/><path class="cls-2" d="M40.48,17.35q0,11.56,5.78,17.34"/><path class="cls-2" d="M40.48,34.69Q17.35,40.48,11.56,52"/><path class="cls-2" d="M98.3,34.69Q121.43,40.48,127.21,52"/><path class="cls-2" d="M49.15,57.82,40.48,52"/><path class="cls-2" d="M89.63,57.82,98.3,52"/><path class="cls-2" d="M69.39,86.74h.06"/><text class="cls-3" transform="translate(151.97 69.39)">L<tspan class="cls-4" x="26.19" y="0">e</tspan><tspan class="cls-5" x="53.1" y="0">wis</tspan><tspan x="0" y="37">Campbell</tspan></text></g></g></svg>